<svg width="1217" height="599" viewBox="0 0 1217 599" fill="none" xmlns="http://www.w3.org/2000/svg">
<path d="M447.477 641.98C447.477 580.908 397.917 531.386 336.761 531.386V524.926C397.9 524.926 447.477 475.421 447.477 414.332H219.595V641.963H447.477V641.98Z" fill="#A9001E"/>
<path d="M227.882 414.097C227.882 353.025 178.322 303.503 117.166 303.503L117.166 297.043C178.305 297.043 227.882 247.538 227.882 186.449H-0.000106812V414.08H227.882V414.097Z" fill="#A9001E"/>
<path d="M667.071 414.097C667.071 353.025 617.512 303.503 556.355 303.503V297.043C617.494 297.043 667.071 247.538 667.071 186.449H439.189V414.08H667.071V414.097Z" fill="#A9001E"/>
<path d="M886.667 186.448C886.667 247.52 936.227 297.042 997.383 297.042V303.502C936.244 303.502 886.667 353.007 886.667 414.096H1114.55V186.465H886.667V186.448Z" fill="#A9001E"/>
<path d="M1097.97 414.329C1097.97 475.4 1147.53 524.923 1208.69 524.923V531.383C1147.55 531.383 1097.97 580.888 1097.97 641.977H1325.86V414.346H1097.97V414.329Z" fill="#A9001E"/>
<path d="M886.667 641.98C886.667 580.908 837.107 531.386 775.951 531.386V524.926C837.09 524.926 886.667 475.421 886.667 414.332H658.785V641.963H886.667V641.98Z" fill="#A9001E"/>
<rect x="667.071" y="82.8672" width="219.595" height="103.583" fill="#A9001E"/>
<rect x="1110.41" y="82.8672" width="219.595" height="103.583" fill="#A9001E"/>
<rect x="220.977" y="81.4863" width="222.357" height="104.964" fill="#A9001E"/>
<rect y="27.623" width="220.976" height="53.8629" fill="#A9001E"/>
<rect x="443.333" y="27.623" width="223.738" height="53.8629" fill="#A9001E"/>
<rect x="886.667" y="27.623" width="223.738" height="53.8629" fill="#A9001E"/>
<rect x="1110.41" width="215.452" height="27.622" fill="#A9001E"/>
<rect x="667.071" width="219.595" height="27.622" fill="#A9001E"/>
<rect x="220.977" width="222.357" height="27.622" fill="#A9001E"/>
</svg>
