<svg width="375" height="355" viewBox="0 0 375 355" fill="none" xmlns="http://www.w3.org/2000/svg">
<path d="M78.8987 354.956C78.8987 323.092 53.0406 297.253 21.132 297.253L21.132 293.883C53.0317 293.883 78.8987 268.053 78.8987 236.18H-40L-40 354.947H78.8987V354.956Z" fill="#A9001E"/>
<path d="M193.474 236.058C193.474 204.193 167.616 178.355 135.707 178.355V174.984C167.607 174.984 193.474 149.155 193.474 117.281L74.5749 117.281L74.5749 236.049H193.474V236.058Z" fill="#A9001E"/>
<path d="M308.049 117.284C308.049 149.148 333.907 174.987 365.815 174.987V178.358C333.916 178.358 308.049 204.187 308.049 236.061H426.948V117.293L308.049 117.293V117.284Z" fill="#A9001E"/>
<path d="M308.049 354.956C308.049 323.092 282.191 297.253 250.282 297.253V293.883C282.182 293.883 308.049 268.053 308.049 236.18H189.15V354.947H308.049V354.956Z" fill="#A9001E"/>
<rect x="193.474" y="63.2363" width="114.575" height="54.0448" fill="#A9001E"/>
<rect x="-39.2791" y="62.5156" width="116.016" height="54.7654" fill="#A9001E"/>
<rect x="76.7368" y="34.4121" width="116.737" height="28.1033" fill="#A9001E"/>
<rect x="308.049" y="34.4121" width="116.737" height="28.1033" fill="#A9001E"/>
<rect x="193.474" width="114.575" height="14.4119" fill="#A9001E"/>
<rect x="-39.2791" width="116.016" height="14.4119" fill="#A9001E"/>
</svg>
