<svg width="1054" height="1012" viewBox="0 0 1054 1012" fill="none" xmlns="http://www.w3.org/2000/svg">
<mask id="path-1-inside-1_3681_736" fill="white">
<path d="M1054 932C1054 976.183 1018.18 1012 974 1012H150.349C106.166 1012 70.3486 976.183 70.3486 932V669C70.3486 649.573 54.6006 633.825 35.1743 633.825C15.7481 633.825 0 618.077 0 598.651V441.624C0 422.197 15.7481 406.449 35.1743 406.449C54.6006 406.449 70.3486 390.701 70.3486 371.275V80C70.3486 35.8172 106.166 0 150.349 0H974C1018.18 0 1054 35.8172 1054 80V932Z"/>
</mask>
<path d="M1054 932C1054 976.183 1018.18 1012 974 1012H150.349C106.166 1012 70.3486 976.183 70.3486 932V669C70.3486 649.573 54.6006 633.825 35.1743 633.825C15.7481 633.825 0 618.077 0 598.651V441.624C0 422.197 15.7481 406.449 35.1743 406.449C54.6006 406.449 70.3486 390.701 70.3486 371.275V80C70.3486 35.8172 106.166 0 150.349 0H974C1018.18 0 1054 35.8172 1054 80V932Z" fill="#0F0F0F"/>
<path d="M974 1012V1011.5H150.349V1012V1012.5H974V1012ZM70.3486 932H70.8486V669H70.3486H69.8486V932H70.3486ZM0 598.651H0.5V441.624H0H-0.5V598.651H0ZM70.3486 371.275H70.8486V80H70.3486H69.8486V371.275H70.3486ZM150.349 0V0.5H974V0V-0.5H150.349V0ZM1054 80H1053.5V932H1054H1054.5V80H1054ZM974 0V0.5C1017.91 0.5 1053.5 36.0934 1053.5 80H1054H1054.5C1054.5 35.5411 1018.46 -0.5 974 -0.5V0ZM70.3486 80H70.8486C70.8486 36.0934 106.442 0.5 150.349 0.5V0V-0.5C105.89 -0.5 69.8486 35.5411 69.8486 80H70.3486ZM35.1743 406.449V406.949C54.8767 406.949 70.8486 390.977 70.8486 371.275H70.3486H69.8486C69.8486 390.425 54.3244 405.949 35.1743 405.949V406.449ZM0 441.624H0.5C0.5 422.473 16.0242 406.949 35.1743 406.949V406.449V405.949C15.4719 405.949 -0.5 421.921 -0.5 441.624H0ZM35.1743 633.825V633.325C16.0242 633.325 0.5 617.801 0.5 598.651H0H-0.5C-0.5 618.353 15.4719 634.325 35.1743 634.325V633.825ZM70.3486 669H70.8486C70.8486 649.297 54.8767 633.325 35.1743 633.325V633.825V634.325C54.3244 634.325 69.8486 649.849 69.8486 669H70.3486ZM150.349 1012V1011.5C106.442 1011.5 70.8486 975.907 70.8486 932H70.3486H69.8486C69.8486 976.459 105.89 1012.5 150.349 1012.5V1012ZM974 1012V1012.5C1018.46 1012.5 1054.5 976.459 1054.5 932H1054H1053.5C1053.5 975.907 1017.91 1011.5 974 1011.5V1012Z" fill="white" mask="url(#path-1-inside-1_3681_736)"/>
</svg>
