<svg width="45" height="45" viewBox="0 0 45 45" fill="none" xmlns="http://www.w3.org/2000/svg">
<g clip-path="url(#clip0_3681_2533)">
<path d="M22.2062 0C10.0557 0 0 10.0557 0 22.2062C0 34.3567 10.0557 44.4124 22.2062 44.4124C34.3567 44.4124 44.4124 34.3567 44.4124 22.2062C44.4124 10.0557 34.5663 0 22.2062 0ZM22.2062 42.3175C11.1031 42.3175 2.09494 33.3093 2.09494 22.2062C2.09494 11.1031 11.1031 2.09494 22.2062 2.09494C33.3093 2.09494 42.3175 11.1031 42.3175 22.2062C42.3175 33.3093 33.3093 42.3175 22.2062 42.3175Z" fill="#7E776F"/>
<path d="M14 21.9049L21.9127 13.9922M21.9127 13.9922L29.8254 21.9049M21.9127 13.9922V29.8176" stroke="#7E776F" stroke-width="2.26077" stroke-linecap="round" stroke-linejoin="round"/>
</g>
<defs>
<clipPath id="clip0_3681_2533">
<rect width="44.4124" height="44.4124" fill="white"/>
</clipPath>
</defs>
</svg>
